<mxfile host="app.diagrams.net" modified="2023-05-21T13:39:45.924Z" agent="Mozilla/5.0 (Macintosh; Intel Mac OS X 10_15_7) AppleWebKit/537.36 (KHTML, like Gecko) Chrome/113.0.0.0 Safari/537.36" etag="yKCxiZ3OeHb7HsCM2xBe" version="21.3.2" type="github">
  <diagram name="第 1 页" id="-bq4I37ISUpjir0ef7ZN">
    <mxGraphModel dx="2375" dy="1520" grid="1" gridSize="10" guides="1" tooltips="1" connect="1" arrows="1" fold="1" page="1" pageScale="1" pageWidth="827" pageHeight="1169" math="0" shadow="0">
      <root>
        <mxCell id="0" />
        <mxCell id="1" parent="0" />
        <mxCell id="_Yjp96CzMvQDOWMM9cIU-6" value="" style="edgeStyle=orthogonalEdgeStyle;rounded=0;orthogonalLoop=1;jettySize=auto;html=1;" edge="1" parent="1" source="_Yjp96CzMvQDOWMM9cIU-1" target="_Yjp96CzMvQDOWMM9cIU-2">
          <mxGeometry relative="1" as="geometry" />
        </mxCell>
        <mxCell id="_Yjp96CzMvQDOWMM9cIU-1" value="开始" style="rounded=1;whiteSpace=wrap;html=1;" vertex="1" parent="1">
          <mxGeometry x="360" y="170" width="120" height="60" as="geometry" />
        </mxCell>
        <mxCell id="_Yjp96CzMvQDOWMM9cIU-7" value="" style="edgeStyle=orthogonalEdgeStyle;rounded=0;orthogonalLoop=1;jettySize=auto;html=1;" edge="1" parent="1" source="_Yjp96CzMvQDOWMM9cIU-2" target="_Yjp96CzMvQDOWMM9cIU-3">
          <mxGeometry relative="1" as="geometry" />
        </mxCell>
        <mxCell id="_Yjp96CzMvQDOWMM9cIU-2" value="填写注册信息" style="rounded=0;whiteSpace=wrap;html=1;" vertex="1" parent="1">
          <mxGeometry x="360" y="260" width="120" height="60" as="geometry" />
        </mxCell>
        <mxCell id="_Yjp96CzMvQDOWMM9cIU-8" value="" style="edgeStyle=orthogonalEdgeStyle;rounded=0;orthogonalLoop=1;jettySize=auto;html=1;" edge="1" parent="1" source="_Yjp96CzMvQDOWMM9cIU-3" target="_Yjp96CzMvQDOWMM9cIU-4">
          <mxGeometry relative="1" as="geometry" />
        </mxCell>
        <mxCell id="_Yjp96CzMvQDOWMM9cIU-21" value="成功" style="edgeLabel;html=1;align=center;verticalAlign=middle;resizable=0;points=[];" vertex="1" connectable="0" parent="_Yjp96CzMvQDOWMM9cIU-8">
          <mxGeometry x="-0.2" y="4" relative="1" as="geometry">
            <mxPoint as="offset" />
          </mxGeometry>
        </mxCell>
        <mxCell id="_Yjp96CzMvQDOWMM9cIU-15" value="失败" style="edgeStyle=orthogonalEdgeStyle;rounded=0;orthogonalLoop=1;jettySize=auto;html=1;" edge="1" parent="1" source="_Yjp96CzMvQDOWMM9cIU-3">
          <mxGeometry relative="1" as="geometry">
            <mxPoint x="260" y="410" as="targetPoint" />
          </mxGeometry>
        </mxCell>
        <mxCell id="_Yjp96CzMvQDOWMM9cIU-3" value="账号格式校验" style="rhombus;whiteSpace=wrap;html=1;" vertex="1" parent="1">
          <mxGeometry x="360" y="370" width="120" height="80" as="geometry" />
        </mxCell>
        <mxCell id="_Yjp96CzMvQDOWMM9cIU-9" value="成功" style="edgeStyle=orthogonalEdgeStyle;rounded=0;orthogonalLoop=1;jettySize=auto;html=1;" edge="1" parent="1" source="_Yjp96CzMvQDOWMM9cIU-4" target="_Yjp96CzMvQDOWMM9cIU-5">
          <mxGeometry relative="1" as="geometry" />
        </mxCell>
        <mxCell id="_Yjp96CzMvQDOWMM9cIU-16" value="失败" style="edgeStyle=orthogonalEdgeStyle;rounded=0;orthogonalLoop=1;jettySize=auto;html=1;" edge="1" parent="1" source="_Yjp96CzMvQDOWMM9cIU-4">
          <mxGeometry relative="1" as="geometry">
            <mxPoint x="260" y="545" as="targetPoint" />
          </mxGeometry>
        </mxCell>
        <mxCell id="_Yjp96CzMvQDOWMM9cIU-4" value="密码格式校验" style="rhombus;whiteSpace=wrap;html=1;" vertex="1" parent="1">
          <mxGeometry x="360" y="505" width="120" height="80" as="geometry" />
        </mxCell>
        <mxCell id="_Yjp96CzMvQDOWMM9cIU-11" value="" style="edgeStyle=orthogonalEdgeStyle;rounded=0;orthogonalLoop=1;jettySize=auto;html=1;" edge="1" parent="1" source="_Yjp96CzMvQDOWMM9cIU-5" target="_Yjp96CzMvQDOWMM9cIU-10">
          <mxGeometry relative="1" as="geometry" />
        </mxCell>
        <mxCell id="_Yjp96CzMvQDOWMM9cIU-22" value="成功" style="edgeLabel;html=1;align=center;verticalAlign=middle;resizable=0;points=[];" vertex="1" connectable="0" parent="_Yjp96CzMvQDOWMM9cIU-11">
          <mxGeometry x="0.2" y="-2" relative="1" as="geometry">
            <mxPoint as="offset" />
          </mxGeometry>
        </mxCell>
        <mxCell id="_Yjp96CzMvQDOWMM9cIU-17" value="失败" style="edgeStyle=orthogonalEdgeStyle;rounded=0;orthogonalLoop=1;jettySize=auto;html=1;" edge="1" parent="1" source="_Yjp96CzMvQDOWMM9cIU-5">
          <mxGeometry relative="1" as="geometry">
            <mxPoint x="260" y="680" as="targetPoint" />
          </mxGeometry>
        </mxCell>
        <mxCell id="_Yjp96CzMvQDOWMM9cIU-5" value="重复密码校验" style="rhombus;whiteSpace=wrap;html=1;" vertex="1" parent="1">
          <mxGeometry x="360" y="640" width="120" height="80" as="geometry" />
        </mxCell>
        <mxCell id="_Yjp96CzMvQDOWMM9cIU-13" style="edgeStyle=orthogonalEdgeStyle;rounded=0;orthogonalLoop=1;jettySize=auto;html=1;entryX=0;entryY=0.5;entryDx=0;entryDy=0;" edge="1" parent="1" source="_Yjp96CzMvQDOWMM9cIU-10" target="_Yjp96CzMvQDOWMM9cIU-2">
          <mxGeometry relative="1" as="geometry">
            <mxPoint x="260" y="290" as="targetPoint" />
            <Array as="points">
              <mxPoint x="260" y="820" />
              <mxPoint x="260" y="290" />
            </Array>
          </mxGeometry>
        </mxCell>
        <mxCell id="_Yjp96CzMvQDOWMM9cIU-29" value="失败" style="edgeLabel;html=1;align=center;verticalAlign=middle;resizable=0;points=[];" vertex="1" connectable="0" parent="_Yjp96CzMvQDOWMM9cIU-13">
          <mxGeometry x="-0.8712" y="-3" relative="1" as="geometry">
            <mxPoint as="offset" />
          </mxGeometry>
        </mxCell>
        <mxCell id="_Yjp96CzMvQDOWMM9cIU-19" value="成功" style="edgeStyle=orthogonalEdgeStyle;rounded=0;orthogonalLoop=1;jettySize=auto;html=1;" edge="1" parent="1" source="_Yjp96CzMvQDOWMM9cIU-10" target="_Yjp96CzMvQDOWMM9cIU-18">
          <mxGeometry relative="1" as="geometry" />
        </mxCell>
        <mxCell id="_Yjp96CzMvQDOWMM9cIU-10" value="邮箱校验" style="rhombus;whiteSpace=wrap;html=1;" vertex="1" parent="1">
          <mxGeometry x="360" y="780" width="120" height="80" as="geometry" />
        </mxCell>
        <mxCell id="_Yjp96CzMvQDOWMM9cIU-20" style="edgeStyle=orthogonalEdgeStyle;rounded=0;orthogonalLoop=1;jettySize=auto;html=1;" edge="1" parent="1" source="_Yjp96CzMvQDOWMM9cIU-18">
          <mxGeometry relative="1" as="geometry">
            <mxPoint x="260" y="820" as="targetPoint" />
          </mxGeometry>
        </mxCell>
        <mxCell id="_Yjp96CzMvQDOWMM9cIU-32" value="失败" style="edgeLabel;html=1;align=center;verticalAlign=middle;resizable=0;points=[];" vertex="1" connectable="0" parent="_Yjp96CzMvQDOWMM9cIU-20">
          <mxGeometry x="-0.5825" relative="1" as="geometry">
            <mxPoint as="offset" />
          </mxGeometry>
        </mxCell>
        <mxCell id="_Yjp96CzMvQDOWMM9cIU-34" value="" style="edgeStyle=orthogonalEdgeStyle;rounded=0;orthogonalLoop=1;jettySize=auto;html=1;" edge="1" parent="1" source="_Yjp96CzMvQDOWMM9cIU-18" target="_Yjp96CzMvQDOWMM9cIU-33">
          <mxGeometry relative="1" as="geometry" />
        </mxCell>
        <mxCell id="_Yjp96CzMvQDOWMM9cIU-18" value="验证码校验" style="rhombus;whiteSpace=wrap;html=1;" vertex="1" parent="1">
          <mxGeometry x="360" y="920" width="120" height="80" as="geometry" />
        </mxCell>
        <mxCell id="_Yjp96CzMvQDOWMM9cIU-36" value="" style="edgeStyle=orthogonalEdgeStyle;rounded=0;orthogonalLoop=1;jettySize=auto;html=1;" edge="1" parent="1" source="_Yjp96CzMvQDOWMM9cIU-33" target="_Yjp96CzMvQDOWMM9cIU-35">
          <mxGeometry relative="1" as="geometry" />
        </mxCell>
        <mxCell id="_Yjp96CzMvQDOWMM9cIU-33" value="注册成功" style="whiteSpace=wrap;html=1;" vertex="1" parent="1">
          <mxGeometry x="360" y="1050" width="120" height="60" as="geometry" />
        </mxCell>
        <mxCell id="_Yjp96CzMvQDOWMM9cIU-35" value="结束" style="rounded=1;whiteSpace=wrap;html=1;" vertex="1" parent="1">
          <mxGeometry x="360" y="1160" width="120" height="60" as="geometry" />
        </mxCell>
      </root>
    </mxGraphModel>
  </diagram>
</mxfile>
